<svg id="ekAJGq0H6nZ1" xmlns="http://www.w3.org/2000/svg" xmlns:xlink="http://www.w3.org/1999/xlink" viewBox="0 0 200 200" shape-rendering="geometricPrecision" text-rendering="geometricPrecision"><style><![CDATA[#ekAJGq0H6nZ16_to {animation: ekAJGq0H6nZ16_to__to 3000ms linear infinite alternate forwards}@keyframes ekAJGq0H6nZ16_to__to { 0% {transform: translate(8.5px,10px)} 50% {transform: translate(8.5px,6px)} 100% {transform: translate(8.5px,10px)}} #ekAJGq0H6nZ16_tr {animation: ekAJGq0H6nZ16_tr__tr 3000ms linear infinite alternate forwards}@keyframes ekAJGq0H6nZ16_tr__tr { 0% {transform: rotate(0deg)} 23.333333% {transform: rotate(4deg)} 50% {transform: rotate(0deg)} 100% {transform: rotate(0deg)}} #ekAJGq0H6nZ17_to {animation: ekAJGq0H6nZ17_to__to 3000ms linear infinite alternate forwards}@keyframes ekAJGq0H6nZ17_to__to { 0% {transform: translate(8.5px,15.5px)} 50% {transform: translate(8.5px,10.5px)} 100% {transform: translate(8.5px,15.5px)}}]]></style><defs><circle id="ekAJGq0H6nZ2" r="38.5"/><rect id="ekAJGq0H6nZ3" width="27" height="19" rx="2" ry="2"/><linearGradient id="ekAJGq0H6nZ6-fill" x1="0.126291" y1="0.02334" x2="1.171836" y2="1.301216" spreadMethod="pad" gradientUnits="objectBoundingBox"><stop id="ekAJGq0H6nZ6-fill-0" offset="0%" stop-color="rgb(156,179,255)"/><stop id="ekAJGq0H6nZ6-fill-1" offset="100%" stop-color="rgb(176,255,233)"/></linearGradient></defs><g id="ekAJGq0H6nZ4"><g id="ekAJGq0H6nZ5" transform="matrix(1 0 0 1 62 62)"><use id="ekAJGq0H6nZ6" width="77" height="77" xlink:href="#ekAJGq0H6nZ2" transform="matrix(1 0 0 1 38.5 38.5)" fill="url(#ekAJGq0H6nZ6-fill)" fill-rule="evenodd" stroke="none" stroke-width="1"/><g id="ekAJGq0H6nZ7" mask="url(#ekAJGq0H6nZ18)"><g id="ekAJGq0H6nZ8"><g id="ekAJGq0H6nZ9" transform="matrix(1 0 0 1 26 29)"><g id="ekAJGq0H6nZ10"><use id="ekAJGq0H6nZ11" width="27" height="19" xlink:href="#ekAJGq0H6nZ3" fill="rgb(0,0,0)" fill-rule="evenodd" stroke="none" stroke-width="1"/><use id="ekAJGq0H6nZ12" width="27" height="19" xlink:href="#ekAJGq0H6nZ3" fill="rgb(255,255,255)" fill-rule="evenodd" stroke="none" stroke-width="1"/></g><path id="ekAJGq0H6nZ13" d="M2,0L25,0C26.10457,0,27,0.895431,27,2L27,5L0,5L0,2C0,0.895431,0.895431,0,2,0Z" fill="rgb(214,229,255)" fill-rule="evenodd" stroke="none" stroke-width="1"/></g></g><g id="ekAJGq0H6nZ14"><g id="ekAJGq0H6nZ15" transform="matrix(1 0 0 1 40 23)"><g id="ekAJGq0H6nZ16_to" transform="translate(8.5,10)"><g id="ekAJGq0H6nZ16_tr" transform="rotate(0)"><rect id="ekAJGq0H6nZ16" width="17" height="20" rx="2" ry="2" transform="translate(-8.5,-10)" fill="rgb(76,130,222)" fill-rule="evenodd" stroke="none" stroke-width="1"/></g></g><g id="ekAJGq0H6nZ17_to" transform="translate(8.5,15.5)"><circle id="ekAJGq0H6nZ17" r="1.5" transform="translate(0,0)" fill="rgb(255,255,255)" fill-rule="evenodd" stroke="none" stroke-width="1"/></g></g></g><mask id="ekAJGq0H6nZ18" mask-type="luminance"><use id="ekAJGq0H6nZ19" width="77" height="77" xlink:href="#ekAJGq0H6nZ2" transform="matrix(1 0 0 1 38.5 38.5)" fill="rgb(255,255,255)" fill-rule="evenodd" stroke="none" stroke-width="1"/></mask></g></g></g></svg>


